<svg id="Layer_1" data-name="Layer 1" xmlns="http://www.w3.org/2000/svg" viewBox="0 0 512 512"><defs><style>.cls-1{fill:#f9c882;}.cls-2{fill:#141f38;}.cls-3{fill:#d1e1e8;}</style></defs><title>newspaper-1-filled</title><path class="cls-1" d="M452.92,452.92h0a52.51,52.51,0,0,0,52.51-52.51V262.56a32.82,32.82,0,0,0-32.82-32.82H400.41V400.41A52.51,52.51,0,0,0,452.92,452.92Z"/><path class="cls-2" d="M452.92,459.49a59.14,59.14,0,0,1-59.08-59.08V229.74a6.56,6.56,0,0,1,6.56-6.56h72.21A39.43,39.43,0,0,1,512,262.56V400.41A59.14,59.14,0,0,1,452.92,459.49ZM407,236.31v164.1a45.95,45.95,0,1,0,91.9,0V262.56a26.28,26.28,0,0,0-26.26-26.26Z"/><path class="cls-3" d="M367.59,59.08H39.38A32.82,32.82,0,0,0,6.56,91.9V387.28a65.64,65.64,0,0,0,65.64,65.64H452.92a52.51,52.51,0,0,1-52.51-52.51V91.9A32.82,32.82,0,0,0,367.59,59.08Z"/><path class="cls-2" d="M452.92,459.49H72.21A72.29,72.29,0,0,1,0,387.28V91.9A39.43,39.43,0,0,1,39.38,52.51H367.59A39.43,39.43,0,0,1,407,91.9V400.41a46,46,0,0,0,45.95,45.95ZM39.38,65.64A26.29,26.29,0,0,0,13.13,91.9V387.28a59.15,59.15,0,0,0,59.08,59.08H415.83a59,59,0,0,1-22-45.95V91.9a26.28,26.28,0,0,0-26.26-26.26Z"/><path class="cls-2" d="M321.64,262.56H85.33a6.56,6.56,0,0,1,0-13.13H321.64a6.56,6.56,0,0,1,0,13.13Z"/><path class="cls-2" d="M321.64,315.08H85.33a6.56,6.56,0,0,1,0-13.13H321.64a6.56,6.56,0,1,1,0,13.13Z"/><path class="cls-2" d="M190.36,367.59h-105a6.56,6.56,0,1,1,0-13.13h105a6.56,6.56,0,0,1,0,13.13Z"/><path d="M85.33,125.45h8.82l29,35.3v-35.3h9.37V176.5h-8L94.7,140.18V176.5H85.33Z"/><path d="M146.53,125.45h40.18v8H156v13.27h27.17v8H156v13.71h31v8H146.53Z"/><path d="M194.24,125.45h10.3l12.93,37.85,13.32-38h8.05l13.32,38,12.93-37.85h10l-18.89,51.42H248l-13.32-36.69-13.32,36.69h-8.21Z"/><path d="M279.68,169.06l5.73-6.42c5.19,4.23,10.38,6.64,17.11,6.64,5.88,0,9.6-2.55,9.6-6.42v-.15c0-3.65-2.17-5.62-12.23-7.8-11.54-2.63-18-5.84-18-15.25v-.15c0-8.75,7.74-14.81,18.5-14.81A31.21,31.21,0,0,1,320,131.14l-5.11,6.78c-4.88-3.43-9.75-5.25-14.71-5.25-5.58,0-8.83,2.7-8.83,6.05v.15c0,3.94,2.48,5.69,12.85,8,11.46,2.62,17.42,6.49,17.42,15V162c0,9.56-8,15.24-19.36,15.24A34.57,34.57,0,0,1,279.68,169.06Z"/></svg>